<?xml version="1.0" encoding="UTF-8" standalone="no"?><!DOCTYPE svg PUBLIC "-//W3C//DTD SVG 1.1//EN" "http://www.w3.org/Graphics/SVG/1.1/DTD/svg11.dtd"><svg width="100%" height="100%" viewBox="0 0 550 550" version="1.1" xmlns="http://www.w3.org/2000/svg" xmlns:xlink="http://www.w3.org/1999/xlink" xml:space="preserve" xmlns:serif="http://www.serif.com/" style="fill-rule:evenodd;clip-rule:evenodd;stroke-linejoin:round;stroke-miterlimit:2;"><rect x="-27" y="-18" width="607" height="590" style="fill:#f77600;"/><path d="M178.816,14c1.905,-0 3.733,0.757 5.08,2.104c1.347,1.347 2.104,3.175 2.104,5.08c0,58.188 0,451.711 0,511.27c-0,4.168 -3.378,7.546 -7.546,7.546c-0.001,-0 -0.001,-0 -0.002,-0c-1.711,0 -3.352,-0.68 -4.562,-1.89c-1.21,-1.21 -1.89,-2.851 -1.89,-4.562c0,-55.761 0,-455.507 0,-512.734c0,-3.763 3.051,-6.814 6.814,-6.814c0.001,0 0.001,0 0.002,0Z" style="fill:#fff;"/><path d="M378,10c3.866,0 7,3.134 7,7l-0,513c0,1.857 -0.737,3.637 -2.05,4.95c-1.313,1.313 -3.093,2.05 -4.95,2.05l-0,0c-3.866,-0 -7,-3.134 -7,-7l0,-513c-0,-3.866 3.134,-7 7,-7l0,-0Z" style="fill:#fff;"/><path d="M540.001,376.572c0.003,3.44 -2.783,6.23 -6.223,6.233c-54.846,0.043 -454.792,0.358 -512.772,0.403c-1.857,0.001 -3.638,-0.735 -4.951,-2.046c-1.314,-1.312 -2.053,-3.092 -2.054,-4.948c-0,-0 -0,-0 -0,-0c-0.001,-1.857 0.735,-3.638 2.046,-4.951c1.312,-1.314 3.092,-2.053 4.948,-2.054c57.465,-0.045 450.851,-0.354 511.23,-0.402c2.061,-0.002 4.038,0.815 5.496,2.271c1.458,1.456 2.278,3.432 2.28,5.492c0,0.001 0,0.001 0,0.002Z" style="fill:#fff;"/><path d="M534,187.336c0.003,3.568 -2.887,6.462 -6.455,6.465c-55.411,0.044 -449.974,0.354 -507.54,0.399c-1.857,0.001 -3.638,-0.735 -4.951,-2.046c-1.314,-1.312 -2.053,-3.092 -2.054,-4.948c-0,-0.001 -0,-0.001 -0,-0.002c-0.001,-1.856 0.734,-3.637 2.046,-4.95c1.311,-1.313 3.091,-2.052 4.947,-2.054c57.199,-0.045 447.214,-0.352 506.464,-0.398c1.999,-0.002 3.917,0.791 5.332,2.204c1.415,1.413 2.21,3.329 2.212,5.328c0,0.001 0,0.001 0,0.002Z" style="fill:#fff;"/></svg>