<?xml version="1.0" encoding="UTF-8" standalone="no"?><!DOCTYPE svg PUBLIC "-//W3C//DTD SVG 1.1//EN" "http://www.w3.org/Graphics/SVG/1.1/DTD/svg11.dtd"><svg width="100%" height="100%" viewBox="0 0 183 183" version="1.1" xmlns="http://www.w3.org/2000/svg" xmlns:xlink="http://www.w3.org/1999/xlink" xml:space="preserve" xmlns:serif="http://www.serif.com/" style="fill-rule:evenodd;clip-rule:evenodd;stroke-linejoin:round;stroke-miterlimit:2;"><path d="M24.228,24.273c1.414,-1.365 3.312,-2.113 5.276,-2.079c1.965,0.034 3.836,0.847 5.201,2.261c21.428,22.184 103.443,107.092 125.244,129.661c2.954,3.058 2.869,7.931 -0.189,10.885c-0.001,0.001 -0.001,0.001 -0.002,0.002c-1.29,1.246 -3.021,1.928 -4.814,1.897c-1.793,-0.031 -3.499,-0.773 -4.745,-2.062c-20.845,-21.58 -104.902,-108.603 -126.147,-130.597c-2.704,-2.8 -2.627,-7.262 0.173,-9.966c0.001,-0.001 0.001,-0.001 0.002,-0.002Z" style="fill:#fff;"/><path d="M159.975,23.977c1.414,1.364 2.229,3.235 2.264,5.2c0.035,1.965 -0.711,3.863 -2.076,5.278c-21.413,22.199 -103.369,107.163 -125.154,129.747c-2.952,3.06 -7.825,3.148 -10.885,0.196c-0.001,-0.001 -0.001,-0.001 -0.002,-0.002c-1.29,-1.245 -2.033,-2.951 -2.066,-4.744c-0.032,-1.793 0.649,-3.525 1.894,-4.815c20.83,-21.595 104.828,-108.675 126.057,-130.683c2.702,-2.802 7.164,-2.882 9.966,-0.18c0.001,0.001 0.001,0.001 0.002,0.002Z" style="fill:#fff;"/></svg>